<?xml version="1.0" encoding="UTF-8"?>
<svg id="Layer_1" data-name="Layer 1" xmlns="http://www.w3.org/2000/svg" viewBox="0 0 14.41 14.41">
  <defs>
    <style>
      .cls-1 {
        fill: #006472;
      }
    </style>
  </defs>
  <path class="cls-1" d="m14.34,12.76c-.03-.06-.04-.13-.03-.2v-.02c-.17-.01-.33,0-.48.04-.15.04-.31.09-.47.16-.09-.07-.18-.12-.27-.15-.09-.04-.19-.06-.29-.07-.03,0-.06,0-.09,0-.03,0-.06,0-.09,0-.02-.03-.04-.06-.05-.09-.01-.04-.03-.06-.06-.07-.02,0-.06.01-.1,0-.1,0-.2-.04-.28-.1-.09-.06-.18-.09-.28-.1h-.07s-.02-.04-.04-.05c-.02-.01-.03-.02-.05-.02-.02,0-.03-.01-.05-.02-.01,0-.02-.03-.02-.06v-.02s-.03,0-.05,0h-.04c-.08-.01-.17-.03-.25-.07-.09-.04-.16-.09-.21-.16-.14-.06-.28-.12-.43-.19-.15-.07-.27-.17-.38-.29l-.17-.02c-.11-.1-.22-.18-.35-.25-.13-.07-.25-.14-.39-.2-.13-.06-.26-.13-.38-.21-.12-.07-.23-.17-.32-.28-.03,0-.07,0-.12-.01-.04-.02-.09-.04-.12-.08-.04-.03-.07-.08-.09-.12-.03-.05-.04-.09-.03-.14v-.03c.1-.05.2-.1.31-.15.11-.05.2-.11.28-.2.21-.06.4-.14.58-.26.18-.11.37-.21.57-.29.07-.1.15-.17.23-.22.09-.05.17-.11.26-.17.04-.03.09-.07.16-.12.07-.05.13-.08.17-.07.01,0,.03,0,.04.01,0-.06.02-.11.04-.14.02-.03.05-.06.09-.08l.1-.06s.06-.05.08-.1h.15c.04-.05.06-.11.07-.17.12-.05.23-.12.32-.21.09-.09.18-.19.25-.3.08-.11.15-.23.23-.34.07-.12.16-.22.25-.32.02-.11.05-.21.09-.28.04-.07.09-.15.15-.24,0-.08.01-.16.04-.24.03-.08.04-.16.05-.24,0-.08,0-.15-.03-.21-.03-.06-.04-.12-.04-.19,0-.01,0-.02,0-.03,0,0,0-.01,0-.03-.04-.03-.07-.08-.09-.13-.02-.05-.04-.11-.05-.16-.15-.15-.3-.29-.47-.4-.17-.12-.35-.21-.54-.29-.19-.08-.38-.14-.58-.19-.2-.05-.39-.08-.57-.09-.08,0-.16-.01-.25-.01-.08,0-.16,0-.25,0-.04-.04-.09-.06-.14-.06-.05,0-.1,0-.15.04-.3-.03-.59-.03-.89,0-.29.03-.59.06-.88.1-.03.02-.04.05-.04.07,0,.03-.03.04-.06.04-.02,0-.04,0-.05-.02-.02-.01-.03-.02-.05-.02-.08,0-.16,0-.23.04-.07.03-.15.05-.23.04-.05,0-.08-.02-.11-.04-.02.06-.05.1-.1.12-.05.02-.1.04-.15.05-.05,0-.1.02-.15.04-.05.02-.09.05-.12.09,0,0-.02,0-.04,0-.02,0-.04,0-.05-.02-.02-.01-.04-.02-.06-.02-.17.11-.35.19-.54.24-.06.02-.11.03-.16.05-.01,0-.03,0-.05,0-.02.02-.03.03-.05.04-.06.02-.12.05-.18.08-.03,0-.06.02-.09.02-.04,0-.07.02-.11.03-.01,0-.02,0-.03,0,0,0,0,0-.01,0,0,0,0,0-.01,0-.03,0-.06.02-.09.04-.03.02-.07.03-.1.04,0,0-.02,0-.02,0-.02,0-.03,0-.05,0-.04,0-.07,0-.11.02,0,0-.02,0-.02,0-.05.03-.11.06-.16.09-.07,0-.14.02-.21.05-.11.05-.21.1-.29.16-.03-.02-.06-.03-.11-.03-.06,0-.12.02-.17.06-.06.04-.11.08-.16.13-.16.03-.31.07-.47.13-.15.06-.3.12-.44.2-.05.03-.11.06-.17.09-.06.03-.11.06-.17.07-.07.03-.14.05-.21.06-.07.01-.14.03-.21.06-.13.05-.27.1-.4.16-.13.06-.27.11-.41.16,0-.04,0-.08,0-.12,0-.04,0-.08,0-.13,0-.12,0-.25.02-.38.01-.13.05-.25.09-.36v-.41c.09-.22.15-.45.18-.69.03-.24.08-.47.13-.7.23-.17.47-.31.72-.42.25-.12.5-.23.74-.35.13-.06.25-.13.36-.2s.23-.14.35-.2c0,0,.01,0,.03,0,.02,0,.03,0,.04.02,0,.01.02.02.04.02h.01s.06-.07.09-.1c.04-.02.08-.04.12-.06.04-.02.09-.04.13-.06.04-.02.08-.05.1-.09.11-.02.21-.05.31-.1.1-.05.19-.11.29-.16.09-.06.19-.11.29-.16.1-.05.2-.08.3-.1.04-.06.09-.11.15-.14.06-.03.13-.06.2-.08.07-.02.14-.05.21-.08.07-.03.12-.07.17-.13.07,0,.13-.02.19-.05.06-.03.12-.06.18-.1s.13-.03.19-.06c.06-.03.11-.04.17-.06.03.03.07-.02.11-.01.04,0,.04-.02.08-.02,0-.01.05-.02.05-.05,0-.03,0-.02.02-.02.02,0,.04-.01.06-.01s.06,0,.1,0c.04,0,.07,0,.08-.03,0-.05,0-.1.01-.15,0-.05,0-.1,0-.16,0-.03,0-.06,0-.1,0-.03,0-.07-.01-.1-.07-.07-.05-.12-.07-.18-.02-.06-.14-.03-.16-.09-.05,0-.1,0-.16-.02-.05-.01-.1-.03-.16-.04-.14.12-.29.22-.44.29-.15.07-.32.12-.49.14,0,.04-.01.07-.03.09s-.04.04-.07.07c0,0-.02-.01-.03-.02,0,0-.02,0-.03,0-.03,0-.06.02-.09.05-.03.03-.06.06-.09.07-.02-.02-.06-.03-.09-.03-.04,0-.09.01-.13.03-.04.02-.09.05-.13.08-.04.03-.09.05-.13.08-.05.02-.09.03-.13.03-.03,0-.06,0-.08,0-.02.03-.03.06-.03.1,0,.04-.02.07-.05.09,0-.01,0-.03,0-.04,0-.02-.01-.03-.03-.03,0,0-.01,0-.01,0-.14.08-.27.15-.38.21-.11.06-.25.11-.4.16,0,.02,0,.05,0,.08,0,.03-.02.04-.06.04,0,0-.02,0-.04,0-.01,0-.03,0-.04,0-.06,0-.11.01-.16.03-.05.02-.1.05-.14.07s-.09.05-.13.07c-.05.02-.09.03-.14.03-.03,0-.06,0-.09-.03-.06.05-.12.09-.18.13-.06.03-.13.06-.2.09-.07.03-.13.06-.19.09-.06.03-.12.08-.17.13h-.03s-.03,0-.05-.02c-.01-.01-.03-.02-.04-.02h-.01c-.02.08-.07.14-.13.19-.06.05-.13.07-.2.07-.04,0-.09-.01-.14-.04,0-.09,0-.18,0-.26,0-.08-.02-.17-.03-.26.02-.05.05-.08.09-.11.03-.03.06-.07.06-.14-.03-.09-.07-.17-.1-.26s-.08-.16-.13-.23c-.05-.07-.1-.13-.17-.17s-.14-.06-.23-.06c-.06,0-.11,0-.14.03-.03.02-.06.04-.08.06-.02.02-.04.05-.07.07-.02.03-.06.05-.1.07,0,.06.02.13.03.19,0,.07.01.13.01.2,0,.06,0,.12-.02.18-.01.06-.03.11-.07.16,0,.03.02.07.02.1,0,.03,0,.07,0,.1,0,.17-.02.33-.06.5-.04.17-.06.33-.07.5-.08.01-.16.04-.22.09-.07.05-.13.1-.2.16s-.13.12-.19.18c-.06.06-.13.1-.21.14-.04.11-.06.22-.06.33,0,.18.07.34.21.48h.01c.1,0,.19-.02.28-.05.09-.03.19-.05.28-.05h.04c-.04.21-.07.43-.09.65l-.06.65c-.02.21-.04.42-.08.64-.03.21-.08.42-.14.62-.13.02-.24.08-.35.18-.11.1-.17.23-.17.4,0,.05,0,.1.02.16.01.06.03.12.06.16.03.05.08.08.16.11.07.03.14.06.18.11-.04.26-.08.52-.1.77-.02.26-.05.52-.09.78,0,.02-.01.07-.02.13,0,.06-.02.13-.03.2-.01.07-.02.13-.03.19s-.01.09-.01.1c0,.05,0,.08.03.1.02.02.03.05.03.09-.07.06-.11.14-.11.26,0,.06,0,.11.02.17.01.05.03.11.04.15-.01.02-.03.05-.04.07-.01.03-.03.04-.05.06.02.13.05.27.07.41s.04.27.05.41c0,.06.02.13.02.2,0,.07,0,.14.02.19,0,.03.03.05.05.04.02,0,.03.01.03.05,0,.02,0,.05-.01.07s-.01.05-.01.08c0,.12.02.23.07.36.05.12.08.24.11.36.05.06.1.12.16.18.06.06.12.12.18.18.06.05.13.1.2.13.07.03.14.05.22.05.11,0,.22-.02.32-.05.11-.03.21-.07.31-.1.03-.05.05-.08.08-.11.02-.03.06-.04.11-.04h.02c.03-.07.07-.12.13-.16s.12-.06.18-.09c.09-.12.19-.23.3-.34.11-.11.21-.21.32-.32.11-.1.21-.21.31-.31s.2-.22.29-.34c.05.01.08,0,.08-.03,0-.03.03-.04.06-.04h0c.09-.11.17-.22.26-.33.08-.1.19-.18.32-.23,0-.03.02-.07.04-.1.02-.03.04-.06.06-.09.08-.06.17-.11.26-.16.09-.05.18-.1.28-.15.03-.07.07-.14.12-.19.05-.05.1-.09.15-.13.05-.03.11-.07.17-.1.06-.03.11-.07.17-.11.02-.02.04-.04.06-.07l.07-.09s.05-.05.07-.07.04-.03.07-.03c0,0,.02,0,.02,0,0,0,0,0,.02,0-.02-.12-.03-.24-.04-.37,0-.12-.04-.24-.09-.35-.02.01-.04.02-.06.02-.02,0-.04,0-.07,0-.08,0-.15,0-.23-.02l-.23-.03c-.01.06-.03.12-.06.18-.02.05-.05.11-.08.16-.05-.01-.09,0-.1.03-.01.03-.04.04-.08.04,0,0-.02,0-.02,0-.12.16-.24.29-.38.41-.14.12-.28.24-.42.36-.04.04-.09.08-.13.13-.05.04-.09.09-.13.13l-.11.12s-.05.03-.09.03c-.01,0-.03,0-.04,0-.02.09-.06.16-.11.21-.05.05-.09.11-.1.2-.06.01-.11.03-.14.06-.04.03-.07.07-.1.12-.03.05-.06.1-.08.15-.02.05-.05.1-.09.15h-.14c-.13.1-.24.22-.35.36-.11.14-.22.26-.34.38-.12.12-.24.22-.37.3-.13.08-.29.12-.46.12-.03,0-.06,0-.08,0-.03,0-.05,0-.08-.01-.03-.12-.08-.23-.15-.32-.07-.1-.12-.2-.14-.32-.02-.1-.04-.2-.05-.31,0-.11-.02-.22-.03-.32,0-.11-.02-.21-.04-.32s-.04-.2-.06-.29c.06-.25.1-.52.12-.82.02-.3.04-.59.06-.89.02-.3.06-.59.1-.86.05-.28.13-.52.26-.73.06-.02.12-.05.17-.09l.16-.12c.05-.04.11-.08.16-.11.05-.03.11-.05.18-.05.03,0,.06,0,.1.02.04-.09.11-.15.21-.18.1-.03.19-.05.26-.05h.04s.04,0,.05,0c.02-.06.06-.1.1-.12.05-.02.09-.04.14-.06.05-.01.1-.03.14-.06.05-.02.08-.06.1-.11.01,0,.04,0,.08,0,.1,0,.18-.03.26-.08.08-.05.16-.08.24-.08.03,0,.06,0,.09.03.01-.04.04-.07.06-.09.03-.02.06-.04.09-.05l.11-.04s.07-.04.09-.07c.16-.02.32-.06.48-.13.16-.07.31-.14.46-.21.15-.07.31-.14.46-.2.07-.03.14-.08.22-.14.02,0,.05-.01.07-.03.03-.03.05-.01.07-.02.05-.01.05-.01.1-.01.05,0,.1-.02.15-.04.11-.04.23-.09.34-.13.11-.05.38-.24.5-.23h.06c.07-.06.16-.11.26-.13.1-.02.19-.05.28-.07.02.13.02.27.02.4,0,.13,0,.27-.01.4-.02.28-.04.55-.08.82-.04.27-.08.55-.12.83-.02.13-.03.25-.04.38,0,.13-.02.26-.04.39,0,.06-.02.13-.04.2-.02.07-.03.14-.04.2l-.14.9s-.03.03-.03.07c-.05.08-.1.15-.16.21s-.1.14-.1.25c0,.12,0,.21.05.27.04.06.08.14.11.23-.02.17-.04.35-.06.54-.01.19-.03.38-.05.56-.02.19-.05.37-.08.55-.03.18-.08.35-.14.52-.04.09-.07.19-.09.28-.02.09-.03.19-.04.28,0,.07,0,.14,0,.21,0,.07,0,.15,0,.22.01.05.01.11.01.18,0,.02,0,.05-.02.07-.01.02-.02.05-.02.08,0,.02,0,.03,0,.04.05.09.09.15.13.19.04.04.09.1.16.17.04,0,.06-.02.07-.07.01-.05.03-.09.05-.11.08.02.14.07.16.14.05-.04.1-.08.15-.1.05-.03.1-.06.15-.09.01-.05.02-.1.02-.15v-.15c.01-.06.02-.12.02-.18,0-.05,0-.11,0-.18.01-.05.02-.09.03-.14.01-.05.02-.09.03-.14-.02-.06-.03-.14-.02-.24v-.15s0-.09,0-.14c.04-.12.07-.26.09-.41.02-.15.04-.3.05-.45.02-.15.04-.3.06-.44.02-.14.06-.27.11-.38.04.02.08.04.12.05.04.02.08.02.12.03.02,0,.04,0,.06,0,.02,0,.04,0,.05,0,.04.04.07.08.11.11.04.03.07.07.11.11,0-.02.02-.03.05-.03.01,0,.03,0,.05.01.02,0,.04,0,.05,0,.09.07.18.13.28.19l.29.16c.1.05.2.1.29.16.1.05.19.12.27.19.07,0,.13.02.19.07.06.05.11.1.16.14.05.04.1.08.17.11.07.03.13.06.2.08.07.03.14.06.21.09.07.03.13.08.18.13h.04c.08.01.16.04.25.08.09.04.17.09.24.13.08.05.15.09.21.14.06.04.11.07.14.07l.36.03c.04.07.09.11.14.13s.1.04.16.04c.05,0,.11.02.16.04.05.02.1.05.15.09.14,0,.27.02.4.05.13.03.26.06.39.08.11-.04.23-.07.36-.11.13-.04.24-.09.34-.17.04.02.09.03.14.04.09,0,.17-.02.23-.08.06-.06.1-.15.12-.26-.02-.07-.04-.13-.07-.19Zm-6.5-3.58c.03-.38.08-.75.13-1.12.05-.37.11-.74.16-1.12.02-.13.03-.26.05-.39.01-.13.03-.25.05-.39v-.16c.01-.06.02-.12.04-.17,0-.03.02-.07.03-.1.01-.03.02-.07.03-.1.02-.08.03-.17.04-.26.01-.09.02-.17.02-.26v-.11s0-.08,0-.12c.03,0,.07-.02.12-.04.05-.02.1-.04.14-.05.05-.02.1-.03.14-.05.04-.02.08-.03.1-.03.05,0,.1,0,.16,0,.06,0,.11,0,.17,0h.38c.13,0,.25,0,.38.01.07,0,.13.01.2.03.06.01.13.03.2.04.03,0,.06.02.09.03.03.01.06.02.09.03h.16c.06.02.12.03.19.05.06.02.12.04.18.06.12.05.24.11.36.18.12.07.24.13.36.19.03.05.06.09.09.12.03.03.07.07.1.1.03.03.06.07.08.11.02.04.03.1.02.17,0,.09-.03.18-.07.25-.04.08-.08.15-.13.23-.05.08-.1.15-.15.23-.05.07-.09.15-.11.23-.24.22-.48.43-.73.62-.25.19-.5.4-.75.62-.04,0-.07.02-.1.05-.03.02-.06.03-.11.03-.04.06-.09.11-.15.14-.06.04-.11.08-.15.14-.16.05-.31.11-.45.19-.14.08-.29.16-.43.24-.15.08-.29.16-.44.23-.15.07-.3.11-.46.14Z"/>
</svg>